<?xml version="1.0" standalone="no"?>
<!DOCTYPE svg PUBLIC "-//W3C//DTD SVG 20010904//EN"
 "http://www.w3.org/TR/2001/REC-SVG-20010904/DTD/svg10.dtd">
<svg version="1.0" xmlns="http://www.w3.org/2000/svg"
 width="300.000000pt" height="300.000000pt" viewBox="0 0 300.000000 300.000000"
 preserveAspectRatio="xMidYMid meet">
<metadata>
Created by potrace 1.14, written by Peter Selinger 2001-2017
</metadata>
<g transform="translate(0.000000,300.000000) scale(0.100000,-0.100000)"
fill="#000000" stroke="none">
<path d="M2994 2800 c0 -113 2 -159 3 -102 2 56 2 148 0 205 -1 56 -3 10 -3
-103z"/>
<path d="M1520 2899 c-85 -13 -191 -47 -210 -69 -3 -3 -23 -18 -45 -34 -61
-45 -116 -99 -126 -124 -5 -12 -11 -51 -15 -85 -3 -34 -10 -67 -15 -73 -5 -6
-6 -14 -2 -17 17 -17 -44 -18 -215 -3 -433 38 -758 70 -849 82 l-43 5 0 -45
c0 -38 3 -45 23 -49 l22 -4 -23 -2 c-17 -1 -22 -6 -20 -18 3 -15 19 -19 83
-25 269 -25 432 -40 600 -53 105 -8 214 -18 243 -21 l52 -5 -30 -30 c-28 -28
-34 -42 -31 -62 1 -4 -7 -7 -16 -5 -13 2 -18 -3 -17 -22 0 -14 4 -24 10 -23 5
1 10 -31 12 -70 4 -83 21 -121 63 -143 29 -14 31 -19 26 -52 -5 -30 -4 -33 5
-18 5 10 36 30 67 45 32 14 71 42 88 61 25 29 96 142 132 210 4 8 18 16 30 18
34 5 26 32 -11 33 -18 1 -36 1 -40 0 -4 0 -5 5 -2 13 3 7 -2 20 -10 29 -9 9
-16 17 -16 20 0 6 129 9 140 2 6 -4 2 -14 -9 -26 -10 -11 -21 -39 -23 -62 -5
-49 1 -119 11 -113 3 2 6 -8 7 -23 1 -39 69 -127 122 -158 58 -35 190 -45 240
-19 36 19 82 75 82 101 0 12 5 15 18 10 9 -4 26 -9 37 -12 11 -3 27 -7 35 -11
8 -3 18 -6 22 -6 14 -2 21 -17 23 -48 1 -18 6 -41 10 -50 5 -13 3 -18 -10 -18
-11 0 -15 -5 -12 -14 3 -8 -1 -20 -9 -27 -8 -7 -13 -18 -10 -25 6 -15 -11 -28
-34 -29 -8 0 -14 -6 -12 -14 3 -12 1 -12 -14 0 -10 8 -15 9 -11 2 10 -17 -13
-28 -24 -12 -8 12 -10 12 -18 0 -7 -11 -9 -11 -14 0 -4 12 -6 11 -6 0 -1 -8 7
-24 17 -35 15 -19 15 -19 0 -7 -16 11 -17 9 -14 -23 2 -20 0 -34 -4 -31 -4 2
-16 -2 -26 -10 -10 -8 -14 -15 -7 -15 9 0 8 -7 -2 -27 -16 -30 -12 -43 13 -43
13 0 11 -3 -6 -16 -13 -9 -30 -13 -39 -10 -13 5 -14 4 -4 -8 7 -8 20 -12 29
-9 15 6 15 5 3 -10 -7 -9 -10 -17 -5 -17 5 0 1 -5 -9 -11 -9 -5 -21 -8 -26 -4
-15 9 -24 -16 -11 -28 10 -9 11 -9 6 1 -4 6 -2 12 3 12 6 0 11 -7 11 -15 0 -8
-4 -15 -10 -15 -5 0 -10 -10 -10 -22 l0 -21 -24 22 c-19 18 -24 20 -29 7 -4
-10 -1 -13 7 -10 8 3 17 1 21 -5 3 -6 1 -11 -5 -11 -6 0 -9 -4 -5 -9 13 -22
-17 -21 -35 1 -12 14 -19 18 -20 9 0 -10 -5 -10 -26 4 -25 16 -25 16 -14 -5 9
-16 18 -20 36 -16 14 4 24 2 24 -4 0 -5 -9 -10 -20 -10 -25 0 -72 29 -65 40 3
4 -2 11 -11 14 -8 3 -12 2 -9 -4 3 -6 1 -10 -4 -10 -6 0 -11 6 -11 14 0 8 -5
18 -10 21 -7 4 -9 -3 -6 -19 3 -18 1 -23 -10 -19 -10 4 -13 0 -8 -13 5 -18 5
-18 -8 -2 -17 19 -36 11 -32 -14 1 -10 -6 -28 -16 -40 -17 -21 -18 -21 -43 -5
-19 12 -28 14 -33 5 -4 -6 -3 -8 4 -4 6 3 13 2 16 -3 4 -5 2 -12 -3 -15 -5 -4
-18 6 -30 21 -17 23 -19 24 -15 7 4 -15 0 -23 -13 -28 -9 -4 -19 -3 -21 3 -7
20 -62 75 -62 62 0 -8 -3 -11 -7 -7 -4 3 -13 -4 -20 -16 -12 -23 -12 -23 -13
-1 0 12 -6 24 -12 26 -10 4 -10 8 1 15 10 7 10 11 1 17 -6 4 -17 2 -23 -5 -9
-10 -9 -11 2 -5 10 5 12 4 7 -4 -4 -6 -12 -9 -17 -5 -5 3 -17 -3 -27 -13 -9
-10 -14 -14 -10 -9 3 4 4 15 1 22 -3 8 4 17 17 22 21 8 21 8 -4 21 -13 8 -22
19 -20 26 3 7 -4 15 -15 18 -12 3 -21 11 -20 19 0 10 2 10 6 1 2 -7 12 -13 21
-13 13 0 11 4 -6 16 -12 8 -26 12 -32 9 -6 -4 -7 1 -3 11 4 11 2 15 -4 11 -6
-4 -9 3 -7 18 1 14 -2 23 -7 19 -5 -3 -7 10 -4 30 2 20 0 36 -5 36 -5 0 -11
15 -13 33 -2 17 -2 -1 1 -41 l4 -73 -73 6 c-41 3 -202 10 -359 16 -157 6 -349
14 -427 17 l-141 7 -1 -61 0 -61 92 -6 c51 -3 255 -12 454 -18 l363 -13 36 42
c42 49 64 54 65 15 0 -16 2 -37 4 -47 2 -11 -2 -31 -10 -45 -7 -15 -20 -44
-28 -66 -34 -88 -42 -103 -50 -98 -5 3 -6 -8 -2 -26 4 -18 3 -31 -3 -31 -11 0
-10 -25 1 -36 4 -4 7 -14 7 -23 1 -9 6 -29 13 -44 11 -26 12 -23 14 42 2 78
27 149 70 194 17 17 22 27 13 27 -11 0 -11 3 -2 12 17 17 49 -28 57 -82 9 -58
74 -179 102 -191 12 -4 48 -4 83 2 68 11 80 7 80 -22 0 -18 3 -17 26 8 14 15
31 28 37 28 7 0 12 7 12 15 0 9 13 17 35 21 l35 6 -34 4 c-19 2 -36 10 -37 17
-1 7 0 8 3 2 3 -6 12 -6 26 2 12 6 33 12 47 13 33 1 52 14 44 27 -4 7 -2 8 4
4 9 -5 9 -13 2 -27 -9 -16 -7 -19 14 -19 20 0 24 -4 20 -17 -5 -16 -4 -17 8
-2 11 14 15 14 26 3 6 -7 12 -18 12 -24 0 -7 9 -9 23 -5 22 7 22 7 2 -10 -20
-16 -20 -16 1 -6 12 6 25 7 29 3 4 -4 2 3 -4 16 -6 12 -8 22 -4 22 12 0 34
-40 28 -50 -3 -5 -1 -11 5 -15 5 -3 10 1 10 10 0 11 5 15 14 12 10 -4 13 -1
10 7 -3 7 2 21 11 30 9 9 17 25 18 35 0 11 5 19 10 18 5 -1 11 8 12 21 1 12
10 28 20 36 10 7 15 18 12 23 -4 6 9 28 28 49 19 22 35 44 35 49 0 6 16 41 36
79 26 48 39 65 47 57 7 -7 7 -17 0 -33 -40 -86 -55 -138 -55 -194 0 -25 -6
-50 -14 -59 -8 -7 -17 -35 -20 -62 -4 -26 -10 -55 -15 -64 -5 -9 -11 -31 -14
-50 -3 -19 -17 -65 -31 -104 -14 -38 -27 -77 -29 -85 -3 -8 -15 -46 -28 -85
l-24 -70 -64 0 c-140 1 -242 26 -381 96 -105 53 -127 75 -129 129 l-1 35 -9
-39 c-8 -32 -5 -49 13 -94 20 -47 32 -61 95 -104 40 -27 81 -52 91 -55 62 -23
248 -150 311 -214 l30 -30 82 73 c45 40 128 110 184 155 l102 81 8 59 c14 107
15 135 2 130 -7 -2 -11 -11 -9 -19 2 -12 -5 -15 -28 -12 -19 2 -29 0 -25 -7 9
-14 -15 -101 -35 -126 -25 -31 -76 -54 -136 -60 -69 -7 -69 -5 -18 114 8 17
14 39 14 48 0 9 9 19 20 22 18 5 25 21 21 46 0 4 6 7 14 7 8 0 14 3 13 8 0 4
1 14 5 22 3 8 13 59 22 113 17 105 39 175 62 193 9 8 28 9 61 2 64 -12 83 -5
126 42 20 23 41 38 46 35 6 -4 5 5 -2 20 -9 21 -8 32 5 60 20 41 26 42 75 11
51 -33 94 -75 117 -114 24 -41 34 -41 33 1 -1 17 0 43 0 57 l2 25 265 -3 265
-3 0 30 0 31 -207 2 c-443 5 -465 6 -458 18 6 10 361 6 573 -5 l92 -5 0 25 0
25 -266 0 -267 0 7 203 c3 111 9 274 13 361 l6 159 253 -6 254 -6 0 34 0 35
-252 1 c-139 1 -257 2 -263 4 -5 1 -38 3 -72 3 -35 1 -63 6 -63 10 0 9 468 7
588 -3 61 -4 62 -4 62 20 l0 25 -327 0 -328 0 -18 44 c-16 39 -134 166 -154
166 -12 0 -113 69 -154 105 -43 38 -178 106 -269 134 -84 27 -173 38 -230 30z
m130 -119 c13 -8 13 -10 -2 -10 -9 0 -20 5 -23 10 -8 13 5 13 25 0z m40 -75
c107 -22 122 -30 165 -86 21 -27 49 -59 64 -70 l26 -21 -32 5 c-40 6 -41 -3
-4 -45 22 -26 27 -40 24 -65 -3 -18 -9 -30 -14 -28 -10 7 -29 -59 -29 -102 0
-18 4 -33 9 -33 9 0 61 -71 61 -84 0 -4 -29 9 -65 29 -42 23 -65 31 -65 23 0
-8 -8 -20 -18 -29 -16 -14 -17 -12 -17 24 0 32 -7 45 -47 83 -71 67 -100 73
-386 74 -134 0 -249 3 -254 6 -24 15 34 155 86 206 20 19 63 46 95 59 33 13
58 26 56 30 -4 5 110 27 225 43 18 2 22 2 120 -19z m221 -93 c-14 -5 -51 17
-51 29 0 6 14 2 30 -8 17 -10 26 -19 21 -21z m-1838 -89 c-7 -2 -19 -2 -25 0
-7 3 -2 5 12 5 14 0 19 -2 13 -5z m35 -50 c-10 -2 -28 -2 -40 0 -13 2 -5 4 17
4 22 1 32 -1 23 -4z m305 0 c-7 -2 -21 -2 -30 0 -10 3 -4 5 12 5 17 0 24 -2
18 -5z m-216 -9 c-3 -3 -12 -4 -19 -1 -8 3 -5 6 6 6 11 1 17 -2 13 -5z m456
-1 c-7 -2 -19 -2 -25 0 -7 3 -2 5 12 5 14 0 19 -2 13 -5z m75 0 c-10 -2 -26
-2 -35 0 -10 3 -2 5 17 5 19 0 27 -2 18 -5z m175 -8 c76 -4 152 -11 170 -16
23 -6 11 -7 -38 -4 -38 2 -118 7 -177 11 -60 4 -108 11 -108 16 0 5 3 7 8 4 4
-2 69 -7 145 -11z m-585 -2 c-10 -2 -26 -2 -35 0 -10 3 -2 5 17 5 19 0 27 -2
18 -5z m70 -10 c-10 -2 -26 -2 -35 0 -10 3 -2 5 17 5 19 0 27 -2 18 -5z m1367
-153 c17 -14 17 -53 0 -48 -5 2 -8 9 -7 17 7 31 -14 -1 -33 -48 -11 -28 -22
-51 -25 -51 -4 0 -17 23 -30 51 l-24 51 24 19 c20 14 21 19 8 19 -9 0 -20 -4
-23 -10 -3 -5 -11 -10 -18 -10 -6 0 -2 7 9 15 23 18 95 15 119 -5z m-488 -32
c-3 -8 -6 -5 -6 6 -1 11 2 17 5 13 3 -3 4 -12 1 -19z m1167 -14 c9 -24 7 -190
-4 -279 -5 -44 -10 -147 -12 -230 -2 -85 -7 -153 -13 -157 -19 -14 -24 -8 -20
25 5 37 15 413 15 560 0 76 3 97 14 97 8 0 17 -7 20 -16z m-864 -13 c-1 -15
-57 -70 -79 -76 -16 -5 -21 -4 -17 4 4 6 2 11 -3 11 -6 0 -11 5 -11 12 0 6 3
9 6 5 11 -10 62 21 69 42 5 18 35 20 35 2z m-360 -36 c-13 -14 -26 -23 -29
-20 -6 6 42 54 48 49 3 -2 -6 -15 -19 -29z m573 -40 c3 -16 4 -24 1 -17 -3 6
-16 12 -29 12 -23 0 -25 9 -9 59 6 20 29 -13 37 -54z m290 50 c-3 -9 -8 -14
-10 -11 -3 3 -2 9 2 15 9 16 15 13 8 -4z m-443 -52 c0 -11 -9 -12 -37 -7 -21
4 -39 8 -41 9 -2 2 4 15 14 30 l17 26 23 -22 c13 -13 24 -29 24 -36z m283 -10
c31 -19 57 -39 57 -44 0 -19 -99 -2 -132 23 -9 7 -20 26 -24 42 -6 26 -5 28
17 21 13 -4 50 -23 82 -42z m-491 -60 c12 -13 19 -23 15 -23 -13 0 -43 33 -56
60 -11 24 -11 24 3 5 8 -11 25 -30 38 -42z m912 -210 c-2 -82 -7 -180 -10
-220 l-6 -72 -66 4 c-37 2 -84 4 -106 4 -33 1 -37 3 -26 16 7 8 19 15 26 15
17 0 96 77 113 109 19 34 7 25 -30 -25 -32 -43 -73 -74 -99 -74 -7 0 -8 6 0
19 5 11 10 30 10 43 -1 15 -7 5 -19 -27 -17 -48 -19 -50 -65 -59 -38 -7 -50
-5 -66 9 -21 19 -19 30 30 128 17 34 28 70 26 85 -2 15 -1 21 1 13 5 -15 43
82 43 110 0 35 136 65 164 36 22 -21 20 -30 -4 -22 -25 8 -57 -10 -113 -62
-33 -31 -44 -47 -40 -62 5 -21 11 -20 52 8 12 8 12 12 2 25 -11 13 -7 17 23
30 22 9 55 13 86 10 42 -3 50 -1 50 14 0 21 19 92 25 92 3 0 2 -66 -1 -147z
m-438 -62 c-4 -5 0 -11 6 -14 7 -2 1 -4 -14 -4 -21 0 -24 2 -15 13 14 15 31
19 23 5z m49 -22 c-6 -17 -9 -19 -16 -8 -5 8 -9 19 -9 24 0 6 5 3 10 -5 8 -13
10 -12 10 4 0 11 3 17 6 13 3 -3 3 -15 -1 -28z m-28 -35 c-9 -9 -28 6 -21 18
4 6 10 6 17 -1 6 -6 8 -13 4 -17z m-67 1 c0 -8 -4 -15 -10 -15 -5 0 -7 7 -4
15 4 8 8 15 10 15 2 0 4 -7 4 -15z m17 -45 c-1 -11 -5 -20 -9 -20 -10 0 -10 4
-2 24 8 22 13 20 11 -4z m-31 -10 c0 -12 -4 -16 -9 -11 -5 5 -6 14 -3 20 10
15 12 14 12 -9z m-79 -62 c-3 -8 -6 -5 -6 6 -1 11 2 17 5 13 3 -3 4 -12 1 -19z
m33 0 c0 -18 -2 -20 -9 -8 -6 8 -7 18 -5 22 9 14 14 9 14 -14z m-1692 -35
c-16 -2 -40 -2 -55 0 -16 2 -3 4 27 4 30 0 43 -2 28 -4z m45 -30 c-7 -2 -19
-2 -25 0 -7 3 -2 5 12 5 14 0 19 -2 13 -5z m167 -7 c8 -2 -16 -4 -55 -5 -38 0
-76 3 -82 7 -12 7 102 5 137 -2z m573 7 c-13 -2 -33 -2 -45 0 -13 2 -3 4 22 4
25 0 35 -2 23 -4z m-443 -13 c0 -5 -10 -10 -22 -9 -22 0 -22 1 -3 9 11 5 21 9
23 9 1 1 2 -3 2 -9z m118 3 c-21 -2 -55 -2 -75 0 -21 2 -4 4 37 4 41 0 58 -2
38 -4z m45 -20 c-7 -2 -21 -2 -30 0 -10 3 -4 5 12 5 17 0 24 -2 18 -5z m1113
-78 c-9 -9 -16 -13 -16 -8 0 12 22 34 28 28 2 -2 -3 -11 -12 -20z m-583 -60
c-12 -32 -23 -14 -14 23 1 2 5 1 11 -3 5 -3 7 -12 3 -20z m315 0 c-3 -3 -9 2
-12 12 -6 14 -5 15 5 6 7 -7 10 -15 7 -18z"/>
<path d="M2232 1833 c-2 -67 -16 -103 -50 -130 -20 -17 -23 -23 -10 -23 41 0
75 89 65 170 -3 27 -4 23 -5 -17z"/>
<path d="M2301 1854 c0 -11 3 -14 6 -6 3 7 2 16 -1 19 -3 4 -6 -2 -5 -13z"/>
<path d="M2073 1763 c-29 -33 -29 -43 1 -43 24 0 36 16 36 51 0 25 -10 23 -37
-8z"/>
<path d="M1133 1926 c4 -22 11 -42 17 -46 8 -5 7 -11 -2 -21 -8 -8 -17 -22
-21 -32 -3 -9 -19 -22 -34 -28 -33 -12 -43 -26 -43 -61 0 -21 7 -29 34 -38 26
-8 34 -16 30 -28 -5 -16 -5 -16 5 0 7 10 19 14 33 10 15 -3 19 -2 14 7 -5 8
-1 10 16 7 48 -10 274 -15 293 -6 11 5 16 9 11 9 -5 1 -3 8 4 17 11 12 10 18
-5 32 -10 9 -15 12 -12 6 3 -6 -8 -18 -25 -28 l-30 -18 7 23 c4 17 3 20 -3 10
-8 -11 -11 -11 -16 0 -3 8 -3 3 0 -10 6 -23 5 -24 -45 -17 -28 4 -59 10 -68
13 -9 4 -14 2 -10 -3 7 -11 -68 -12 -79 -1 -4 4 -18 4 -30 1 -18 -5 -24 -2
-24 10 0 9 -3 15 -7 15 -5 -1 -19 -1 -33 0 l-25 2 23 10 c13 5 21 13 17 18 -3
6 3 8 14 6 15 -3 19 1 16 15 -4 23 30 60 56 60 13 0 23 8 26 20 5 18 12 20 52
16 32 -2 47 -8 49 -20 4 -19 7 -19 33 -6 11 6 19 21 19 36 l0 26 -18 -22 -17
-22 -28 26 c-17 16 -40 26 -58 26 -17 0 -28 4 -25 8 2 4 -4 8 -14 9 -11 1 -22
-2 -25 -8 -9 -13 -49 -11 -64 4 -11 10 -13 5 -8 -27z"/>
<path d="M981 1828 c-1 -32 3 -58 8 -58 5 0 6 21 4 48 -7 70 -11 74 -12 10z"/>
<path d="M1233 1848 c2 -7 1 -20 -3 -28 -4 -8 -4 -24 1 -35 6 -17 8 -16 9 10
1 17 3 38 5 48 2 9 -1 17 -7 17 -5 0 -8 -6 -5 -12z"/>
<path d="M1173 1828 c-9 -10 -13 -18 -10 -18 15 0 57 20 57 28 0 15 -29 9 -47
-10z"/>
<path d="M1742 1760 c0 -14 2 -19 5 -12 2 6 2 18 0 25 -3 6 -5 1 -5 -13z"/>
<path d="M1758 1747 c-3 -15 -2 -27 3 -27 13 0 17 14 9 35 -6 17 -7 16 -12 -8z"/>
<path d="M1160 1740 c0 -5 5 -10 11 -10 5 0 7 5 4 10 -3 6 -8 10 -11 10 -2 0
-4 -4 -4 -10z"/>
<path d="M1118 1638 c7 -7 12 -19 12 -28 0 -9 10 -25 22 -36 13 -12 18 -13 13
-4 -6 10 -2 9 12 -3 14 -12 23 -15 28 -7 3 5 11 8 16 5 5 -4 9 2 9 11 0 10 3
14 7 11 3 -4 13 -1 21 6 13 10 14 9 8 -1 -6 -10 -2 -10 19 0 40 18 15 30 -72
34 -43 2 -79 9 -81 14 -2 6 -9 10 -15 10 -8 0 -7 -4 1 -12z"/>
<path d="M1070 1580 c0 -5 5 -10 11 -10 5 0 7 5 4 10 -3 6 -8 10 -11 10 -2 0
-4 -4 -4 -10z"/>
<path d="M1657 1515 c-6 -15 10 -32 20 -21 4 3 1 6 -5 6 -6 0 -9 7 -6 15 4 8
4 15 1 15 -3 0 -7 -7 -10 -15z"/>
<path d="M1136 1505 c-17 -13 -18 -15 -3 -15 9 0 17 5 17 11 0 5 5 7 12 3 7
-4 8 -3 4 4 -9 14 -7 15 -30 -3z"/>
<path d="M2250 1444 c0 -16 42 -73 58 -78 23 -8 52 -57 52 -88 0 -22 -2 -21
-31 12 -34 38 -30 24 6 -25 13 -17 25 -39 28 -50 4 -11 5 12 3 50 -3 69 -28
145 -48 145 -5 0 -23 9 -39 21 -16 11 -29 17 -29 13z"/>
<path d="M770 1421 c0 -14 -33 -23 -41 -10 -4 8 -12 8 -24 2 -12 -7 -14 -13
-6 -17 6 -4 11 -12 11 -17 0 -6 -4 -7 -10 -4 -6 4 -10 -16 -10 -52 0 -59 -12
-95 -24 -75 -3 6 -2 13 4 17 10 6 7 76 -6 96 -5 8 -3 10 6 4 10 -6 12 -4 7 9
-4 10 -7 20 -7 22 0 13 -25 0 -53 -27 -18 -17 -45 -35 -60 -41 -22 -8 -25 -13
-15 -19 9 -6 5 -9 -14 -9 -18 0 -28 5 -28 15 0 11 -11 15 -40 15 -34 0 -43 6
-71 40 -18 22 -37 40 -42 40 -6 0 -1 -10 11 -23 12 -13 22 -28 22 -35 0 -18
-87 -25 -237 -19 l-143 6 0 -39 0 -40 83 2 c75 1 77 2 32 8 l-50 7 58 1 c31 1
57 -2 57 -6 0 -12 96 -35 119 -27 27 8 36 -26 17 -63 -8 -16 -11 -33 -6 -38 4
-5 10 -33 12 -62 2 -38 -1 -52 -10 -52 -7 0 -28 -11 -45 -24 -33 -25 -74 -29
-99 -9 -7 6 -25 13 -40 17 -16 3 -28 13 -28 21 0 8 -4 15 -10 15 -5 0 -10 -5
-10 -10 0 -7 -7 -7 -20 0 -12 6 -29 8 -40 5 -19 -6 -19 -21 -20 -526 l0 -519
519 0 519 0 7 96 c4 54 1 196 -6 325 -7 126 -10 232 -7 235 8 8 63 -22 123
-66 50 -38 95 -64 95 -57 0 3 -33 27 -72 55 -95 66 -194 147 -310 252 -52 47
-126 106 -165 132 l-70 47 -12 75 c-14 86 -9 103 42 131 25 13 44 37 70 89 20
39 44 81 53 94 15 20 15 22 0 22 -9 0 -16 -4 -16 -9z m-128 -73 c-7 -7 -12 -8
-12 -2 0 14 12 26 19 19 2 -3 -1 -11 -7 -17z m-145 -110 c-3 -8 -6 -5 -6 6 -1
11 2 17 5 13 3 -3 4 -12 1 -19z m-143 -113 c-4 -8 -8 -15 -10 -15 -2 0 -4 7
-4 15 0 8 4 15 10 15 5 0 7 -7 4 -15z m56 -48 c0 -7 -9 -13 -19 -13 -15 0 -17
3 -9 13 6 7 14 13 19 13 5 0 9 -6 9 -13z m57 -159 c-3 -7 -5 -2 -5 12 0 14 2
19 5 13 2 -7 2 -19 0 -25z m-320 -45 c-3 -10 -5 -4 -5 12 0 17 2 24 5 18 2 -7
2 -21 0 -30z m102 -2 c19 -12 6 -97 -16 -105 -19 -8 -37 14 -23 28 6 6 10 27
10 48 0 39 5 44 29 29z m168 -7 c-3 -3 -12 -4 -19 -1 -8 3 -5 6 6 6 11 1 17
-2 13 -5z m-361 -31 c-3 -8 -6 -19 -6 -24 0 -5 -9 -4 -20 3 -30 19 -26 46 6
40 17 -3 23 -9 20 -19z m240 -19 c-15 -14 -16 -13 -16 9 0 14 6 27 13 30 18 6
21 -21 3 -39z m-186 -4 c0 -5 -5 -10 -11 -10 -5 0 -7 5 -4 10 3 6 8 10 11 10
2 0 4 -4 4 -10z"/>
<path d="M1270 1389 c7 -11 14 -18 17 -15 8 8 -5 36 -17 36 -7 0 -7 -6 0 -21z"/>
<path d="M2990 1225 c0 -140 -2 -165 -15 -165 -8 0 -24 9 -36 21 -13 13 -26
18 -37 13 -9 -4 -66 -8 -127 -9 -98 -1 -115 1 -155 22 -25 13 -50 23 -57 23
-7 0 -10 7 -7 15 4 9 0 15 -9 15 -8 0 -18 6 -20 13 -3 7 -6 5 -6 -5 -1 -10 3
-18 9 -18 5 0 7 -6 4 -14 -3 -8 4 -32 14 -53 36 -71 40 -142 9 -175 -6 -7 -31
-35 -54 -61 -23 -27 -43 -48 -45 -47 -5 2 -119 -111 -166 -165 -45 -52 -192
-185 -204 -185 -4 0 -9 12 -11 28 -2 15 -5 0 -5 -33 -2 -53 0 -57 11 -37 13
25 239 218 275 235 27 13 32 8 42 -40 4 -21 15 -67 23 -103 9 -36 20 -103 25
-150 5 -47 20 -145 33 -217 l24 -133 247 0 248 0 0 695 c0 382 -2 695 -5 695
-3 0 -5 -74 -5 -165z"/>
<path d="M2474 1304 c3 -9 6 -30 7 -47 0 -29 1 -30 9 -9 8 20 17 22 87 24 43
2 106 2 140 0 34 -1 64 2 67 6 3 5 -59 12 -137 15 -84 4 -143 10 -145 17 -2 5
-11 10 -19 10 -10 0 -13 -6 -9 -16z"/>
<path d="M1478 1218 c-9 -5 -6 -8 10 -9 41 -3 47 -5 44 -18 -1 -7 2 -9 8 -6 8
5 6 13 -4 24 -17 19 -38 22 -58 9z"/>
<path d="M2482 1183 c-1 -17 -5 -40 -8 -50 -5 -17 -5 -17 6 0 6 9 9 32 7 50
l-4 32 -1 -32z"/>
<path d="M2130 1186 c0 -2 8 -10 18 -17 15 -13 16 -12 3 4 -13 16 -21 21 -21
13z"/>
<path d="M1675 1139 c-4 -6 -5 -12 -2 -15 2 -3 7 2 10 11 7 17 1 20 -8 4z"/>
<path d="M2014 1136 c11 -9 24 -16 30 -16 12 0 7 5 -24 19 -24 11 -24 11 -6
-3z"/>
<path d="M656 1099 c22 -29 123 -116 206 -177 31 -23 59 -46 63 -52 9 -15 228
-179 295 -221 77 -49 80 -51 80 -46 0 3 -71 55 -157 116 -87 61 -171 123 -188
138 -16 16 -50 44 -75 63 -25 19 -79 63 -120 99 -41 36 -86 74 -99 86 l-25 20
20 -26z"/>
<path d="M1685 1111 c-3 -5 0 -13 6 -17 7 -4 9 -3 5 4 -3 5 0 13 6 15 9 4 10
6 1 6 -6 1 -14 -3 -18 -8z"/>
<path d="M1646 1073 c-6 -14 -5 -15 5 -6 7 7 10 15 7 18 -3 3 -9 -2 -12 -12z"/>
<path d="M1715 1060 c-3 -5 -13 -6 -22 -3 -12 5 -15 2 -11 -8 6 -16 -26 -44
-40 -35 -4 2 -8 -4 -8 -14 0 -20 1 -20 51 22 11 10 29 24 40 32 11 9 15 16 8
16 -6 0 -14 -4 -18 -10z"/>
<path d="M1480 993 c0 -23 45 -39 57 -21 3 7 1 8 -5 4 -7 -4 -12 -2 -12 4 0 6
-5 8 -11 4 -6 -3 -15 0 -20 7 -6 9 -9 10 -9 2z"/>
<path d="M1356 572 c-4 -13 -5 -26 -2 -29 10 -11 18 4 14 29 l-4 23 -8 -23z"/>
<path d="M2072 540 c0 -14 2 -19 5 -12 2 6 2 18 0 25 -3 6 -5 1 -5 -13z"/>
<path d="M1341 454 c0 -11 3 -14 6 -6 3 7 2 16 -1 19 -3 4 -6 -2 -5 -13z"/>
<path d="M1330 400 c0 -11 2 -20 4 -20 2 0 6 9 9 20 3 11 1 20 -4 20 -5 0 -9
-9 -9 -20z"/>
<path d="M1305 263 c-9 -60 -23 -141 -31 -182 -21 -111 -10 -96 19 26 25 101
46 263 35 263 -3 0 -13 -48 -23 -107z"/>
<path d="M2081 104 c0 -11 3 -14 6 -6 3 7 2 16 -1 19 -3 4 -6 -2 -5 -13z"/>
<path d="M2072 25 c0 -17 2 -22 5 -12 2 9 2 23 0 30 -3 6 -5 -1 -5 -18z"/>
</g>
</svg>
